<?xml version="1.0" encoding="UTF-8"?>
<svg width="64px" height="64px" viewBox="0 0 64 64" version="1.1" xmlns="http://www.w3.org/2000/svg" xmlns:xlink="http://www.w3.org/1999/xlink">
    <!-- Generator: Sketch 55 (78076) - https://sketchapp.com -->
    <title>fire</title>
    <desc>Created with Sketch.</desc>
    <g id="fire" stroke="none" stroke-width="1" fill="none" fill-rule="evenodd">
        <path d="M32.0987654,64 C32.0987654,64 56.1975309,37.4081461 56.1975309,24.0987654 C56.1975309,10.7893848 45.4081461,0 32.0987654,0 C18.7893848,0 8,10.7893848 8,24.0987654 C8,37.4081461 32.0987654,64 32.0987654,64 Z" id="Oval" fill="#000000"></path>
        <path d="M22.4241594,21.9809241 C22.9633625,21.3850692 23.4349822,20.7256916 23.8267546,20.0151866 C23.8482281,19.9911073 23.8698042,19.9671235 23.8914824,19.9432357 C23.8896,19.9309716 23.8877359,19.9186997 23.8858899,19.9064199 C24.6762174,18.4320098 25.125,16.7432731 25.125,14.9485955 C25.125,14.244469 25.0559181,13.5566502 24.9242307,12.8916848 C26.3669307,9.96084519 28.9959636,8 32,8 C32.1124347,8 32.2243441,8.00274684 32.3356856,8.00818857 C32.1177814,8.99018025 32,10.0383664 32,11.126868 C32,16.6913928 35.0780423,21.2023315 38.875,21.2023315 C39.5468579,21.2023315 40.1962066,21.0610939 40.809976,20.7977731 C42.1853433,22.6537849 43,24.9587711 43,27.4560675 C43,32.3603961 39.8580913,36.5230371 35.4976747,38 C36.7205153,36.9804266 37.5,35.4371187 37.5,33.7098035 C37.5,30.6397208 35.0375661,28.1509271 32,28.1509271 C28.9624339,28.1509271 26.5,30.6397208 26.5,33.7098035 C26.5,35.4371187 27.2794847,36.9804266 28.5023253,38 C24.1419087,36.5230371 21,32.3603961 21,27.4560675 C21,25.4655094 21.5175879,23.5971346 22.4241594,21.9809241 Z" id="Combined-Shape" fill="#FFFFFF"></path>
    </g>
</svg>