<?xml version="1.0" encoding="UTF-8"?>
<svg width="64px" height="64px" viewBox="0 0 64 64" version="1.1" xmlns="http://www.w3.org/2000/svg" xmlns:xlink="http://www.w3.org/1999/xlink">
    <!-- Generator: Sketch 55 (78076) - https://sketchapp.com -->
    <title>police</title>
    <desc>Created with Sketch.</desc>
    <g id="police" stroke="none" stroke-width="1" fill="none" fill-rule="evenodd">
        <path d="M32.0987654,64 C32.0987654,64 56.1975309,37.4081461 56.1975309,24.0987654 C56.1975309,10.7893848 45.4081461,0 32.0987654,0 C18.7893848,0 8,10.7893848 8,24.0987654 C8,37.4081461 32.0987654,64 32.0987654,64 Z" id="Oval" fill="#000000"></path>
        <path d="M32,31.9712123 L21.5543291,31.9712123 C21.5543291,33.0371146 21.5543291,33.808388 21.5543291,34.2850328 C21.5543291,34.7616776 21.3479775,35 20.9352743,35 C18.8514882,35 17.6225873,35 17.2485716,35 C16.8745559,35 16.6875481,34.7616776 16.6875481,34.2850328 C16.6875481,31.7533752 16.6875481,29.0539179 16.6875481,26.1866611 C16.6875481,23.3194043 17.2457381,21.1373384 18.3621183,19.6404634 C16.7873728,19.0827733 16,18.4986652 16,17.8881389 C16,17.2776127 16.4161905,16.8736177 17.2485716,16.6761537 C18.0105523,16.6947359 19.0137033,16.6947359 20.2580247,16.6761537 C21.9966746,12.6756062 23.8675159,10.7358926 25.8705486,10.8570128 L25.8705486,9.39375741 C25.8665854,9.13125247 26.155226,9 26.7364706,9 C27.3177151,9 29.0722249,9 32,9 C34.9277751,9 36.6822849,9 37.2635294,9 C37.844774,9 38.1334146,9.13125247 38.1294514,9.39375741 L38.1294514,10.8570128 C40.1324841,10.7358926 42.0033254,12.6756062 43.7419753,16.6761537 C44.9862967,16.6947359 45.9894477,16.6947359 46.7514284,16.6761537 C47.5838095,16.8736177 48,17.2776127 48,17.8881389 C48,18.4986652 47.2126272,19.0827733 45.6378817,19.6404634 C46.7542619,21.1373384 47.3124519,23.3194043 47.3124519,26.1866611 C47.3124519,29.0539179 47.3124519,31.7533752 47.3124519,34.2850328 C47.3124519,34.7616776 47.1254441,35 46.7514284,35 C46.3774127,35 45.1485118,35 43.0647257,35 C42.6520225,35 42.4456709,34.7616776 42.4456709,34.2850328 C42.4456709,33.808388 42.4456709,33.0371146 42.4456709,31.9712123 L32,31.9712123 Z M30.0718068,9.66020062 L30.0718068,10.9806019 L33.9281932,10.9806019 L33.9281932,9.66020062 L30.0718068,9.66020062 Z M32.0682763,25.3106821 L37.194396,25.3106821 C37.3365621,25.3106821 37.313854,25.285577 37.313854,25.4931255 L37.313854,29.638278 C37.313854,30.0028967 37.6016145,30.2984786 37.956585,30.2984786 C38.3115556,30.2984786 38.5993161,30.0028967 38.5993161,29.638278 L38.5993161,25.4931255 C38.5993161,24.5771487 38.068482,23.9902809 37.194396,23.9902809 L32.0682763,23.9902809 L26.9421566,23.9902809 C26.0680707,23.9902809 25.5372365,24.5771487 25.5372365,25.4931255 L25.5372365,29.638278 C25.5372365,30.0028967 25.824997,30.2984786 26.1799676,30.2984786 C26.5349382,30.2984786 26.8226986,30.0028967 26.8226986,29.638278 L26.8226986,25.4931255 C26.8226986,25.285577 26.7999905,25.3106821 26.9421566,25.3106821 C28.3046359,25.3106821 28.3046359,25.3106821 32.0682763,25.3106821 Z M20.779158,22.224288 C20.6164189,22.1741393 20.447088,22.1486409 20.2767973,22.1486409 C19.3346696,22.1486409 18.5709242,22.9123863 18.5709242,23.854514 C18.5709242,25.1306796 19.6054608,26.1652162 20.8816264,26.1652162 L23.6778335,26.1652162 C24.407071,26.1652162 24.9982347,25.5740524 24.9982347,24.8448149 C24.9982347,24.0599077 24.4864873,23.3667166 23.7363868,23.1355701 L20.779158,22.224288 Z M43.3573946,22.224288 L40.4001658,23.1355701 C39.6500654,23.3667166 39.1383179,24.0599077 39.1383179,24.8448149 C39.1383179,25.5740524 39.7294817,26.1652162 40.4587191,26.1652162 L43.2549262,26.1652162 C44.5310918,26.1652162 45.5656284,25.1306796 45.5656284,23.854514 C45.5656284,22.9123863 44.801883,22.1486409 43.8597553,22.1486409 C43.6894646,22.1486409 43.5201337,22.1741393 43.3573946,22.224288 Z M41.7976988,15.7670564 L40.4192059,13.6590849 C39.865068,12.8117053 38.9208908,12.3010031 37.9084083,12.3010031 L26.2281444,12.3010031 C25.2156618,12.3010031 24.2714846,12.8117053 23.7173467,13.6590849 L22.3388539,15.7670564 L20.8682361,18.0159039 C20.7618356,18.17861 20.7051686,18.3688023 20.7051686,18.56321 C20.7051686,19.1154947 21.1528839,19.56321 21.7051686,19.56321 L42.431384,19.56321 C42.6257917,19.56321 42.8159839,19.506543 42.9786901,19.4001425 C43.4409151,19.0978737 43.5705853,18.478129 43.2683165,18.0159039 L41.7976988,15.7670564 Z M28.5691589,28.145818 C28.0168742,28.145818 27.5691589,28.5935333 27.5691589,29.145818 L27.5691589,29.7866205 C27.5691589,30.3389053 28.0168742,30.7866205 28.5691589,30.7866205 L35.5673937,30.7866205 C36.1196784,30.7866205 36.5673937,30.3389053 36.5673937,29.7866205 L36.5673937,29.145818 C36.5673937,28.5935333 36.1196784,28.145818 35.5673937,28.145818 L28.5691589,28.145818 Z" id="Combined-Shape" fill="#FFFFFF"></path>
    </g>
</svg>